<svg xmlns="http://www.w3.org/2000/svg" height="61.987" viewBox="0 0 362.63437 61.987369" width="362.63"><g transform="matrix(1.25 0 0 -1.25 -1034.7 680.64)"><g><path d="m119.7 0.72266l-6.13 22.902 11.89-3.828h14.94l-31.88 22.568-4.92 18.305h57.91l5.15-19.084-27.41 0.004 30.85-22.582 4.9-18.285-55.3-0.00034zm61.89 0.01367l-6.13 22.901 11.89-3.825h14.94l-31.89 22.569-4.91 18.303h57.91l5.15-19.084-27.41 0.002 30.85-22.582 4.9-18.284-55.3 0.00033zm-171.54 0.00781l3.929 12.547-12.707 47.418h21.45l5.509-20.561-0.295 20.561h16.028l10.22-19.586-5.248 19.586h21.36l15.719-58.66 3.529 11.269-12.697 47.391h21.447l16.071-59.965-28.001 0.00014h-0.758-26.802l-14.705 29.703 1.08-29.703-35.129 0.00014zm250.84 0.00195c-7.53 0-11.24 0.87971-15.27 3.6172-3.9 2.6312-6.39 6.6357-8.09 12.979l-6.91 25.765c-1.78 6.645-1.38 10.609 1.33 13.622 2.8 3.367 6.91 3.98 14 3.98h18.95c7.74 0 11.16-0.812 15.25-3.602 3.87-2.536 6.27-6.423 8.03-12.996l6.9-25.765c1.77-6.593 1.41-10.545-1.29-13.676-2.65-2.9351-6.15-3.9239-13.87-3.9239l-19.03-0.00001zm35.52 0l3.91 12.49-8.01 29.871c-1.59 5.957-1.99 9.858 0.5 13.405 2.49 3.57 6.75 4.197 14.75 4.197h19.36c8.65 0 12.11-0.805 16.13-3.754 3.46-2.579 5.42-6.06 7.24-12.844l11.62-43.365-21.45 0.00009-10.97 40.924h-15.34l10.97-40.924-28.71 0.00009zm-38.09 19.037h15.01l-5.86 21.887h-15.01l5.86-21.887z" transform="matrix(.8 0 0 -.8 827.75 544.52)" fill="#c69214"/><path d="m12.695 2.6875l3.307 10.56-12.193 45.523h17.427l9.162-34.191-0.488 34.191h12.881l17.84-34.191-9.162 34.191h17.342l15.029-56.084-23.828 0.0005-18.176 36.71 1.334-36.71-30.475-0.0005zm75.559 0l3.316 10.59-12.191 45.493h17.432l15.029-56.084-23.586 0.0005zm172.64 0c-7.15 0-10.47 0.7602-14.18 3.2852-3.49 2.3562-5.73 5.9783-7.31 11.871l-6.9 25.767c-1.58 5.895-1.33 9.349 0.94 11.875 2.1 2.524 5.18 3.284 12.51 3.284h18.95c7.15 0 10.36-0.675 14.19-3.284 3.46-2.276 5.61-5.895 7.21-11.875l6.91-25.767c1.58-5.893 1.39-9.2613-0.86-11.871-2.21-2.4441-5.27-3.2855-12.43-3.2855h-19.03zm38.16 0l3.29 10.508-8.15 30.413c-1.7 6.315-1.62 9.181 0.21 11.789 1.83 2.612 4.9 3.372 13.16 3.372h19.36c8.17 0 11.3-0.677 14.97-3.372 3.05-2.272 4.81-5.387 6.53-11.789l10.96-40.922-17.43 0.0005-10.97 40.922-19.36-0.001 10.97-40.922-23.54 0.0005zm-177.84 0.002l-4.8 17.952 8.74-2.816h21.45l-36.37 25.736-4.06 15.137h53.83l4.09-15.142-30.86 0.004 35.15-25.735 4.05-15.136-51.22-0.0005zm61.89 0.0156l-4.8 17.951 8.74-2.814h21.45l-36.37 25.734-4.06 15.137h53.84l4.08-15.141-30.86 0.002 35.15-25.732 4.05-15.137-51.22 0.0001zm73.73 15.139h19.03l-6.9 25.767h-19.03l6.9-25.767z" transform="matrix(.8 0 0 -.8 827.75 544.52)" fill="#2c2a29"/></g></g></svg>
